<?xml version="1.0" encoding="UTF-8" standalone="no"?>
<!-- Created with Inkscape (http://www.inkscape.org/) -->
<!-- ClipArt by Arvin61r58 (http://openclipart.org/user-detail/Arvin61r58) -->

<svg
   xmlns:dc="http://purl.org/dc/elements/1.1/"
   xmlns:cc="http://creativecommons.org/ns#"
   xmlns:rdf="http://www.w3.org/1999/02/22-rdf-syntax-ns#"
   xmlns:svg="http://www.w3.org/2000/svg"
   xmlns="http://www.w3.org/2000/svg"
   version="1.1"
   id="svg4268"
   viewBox="0 0 300 300"
   height="300"
   width="300">
  <title
     id="title4834">Tileable Wave Pattern</title>
  <defs
     id="defs4270" />
  <metadata
     id="metadata4273">
    <rdf:RDF>
      <cc:Work
         rdf:about="">
        <dc:format>image/svg+xml</dc:format>
        <dc:type
           rdf:resource="http://purl.org/dc/dcmitype/StillImage" />
        <dc:title>Tileable Wave Pattern</dc:title>
        <dc:description>tileable/seamless wave pattern</dc:description>
        <dc:creator>
          <cc:Agent>
            <dc:title>Arvin61r58</dc:title>
          </cc:Agent>
        </dc:creator>
        <dc:publisher>
          <cc:Agent>
            <dc:title>Openclipart.org</dc:title>
          </cc:Agent>
        </dc:publisher>
        <dc:identifier>https://openclipart.org/</dc:identifier>
        <dc:source>https://openclipart.org/user-detail/Arvin61r58</dc:source>
        <dc:subject>
          <rdf:Bag>
            <rdf:li>pattern</rdf:li>
            <rdf:li>tile</rdf:li>
            <rdf:li>wave</rdf:li>
            <rdf:li>sine waave</rdf:li>
            <rdf:li></rdf:li>
          </rdf:Bag>
        </dc:subject>
        <cc:license
           rdf:resource="http://creativecommons.org/publicdomain/zero/1.0/" />
      </cc:Work>
      <cc:License
         rdf:about="http://creativecommons.org/publicdomain/zero/1.0/">
        <cc:permits
           rdf:resource="http://creativecommons.org/ns#Reproduction" />
        <cc:permits
           rdf:resource="http://creativecommons.org/ns#Distribution" />
        <cc:permits
           rdf:resource="http://creativecommons.org/ns#DerivativeWorks" />
      </cc:License>
    </rdf:RDF>
  </metadata>
  <g
     transform="translate(-222.04724,-376.18102)"
     id="layer1">
    <path
       id="path4147"
       d="m 222.04727,376.18102 0,20.5254 c 7.52005,-1.82885 14.24978,0.35479 23.2588,6.55958 15.60852,10.75001 21.27297,10.92027 35.99413,1.08984 16.47339,-11.00056 25.16548,-11.16026 39.50683,-0.73534 13.92694,10.12476 22.32587,10.12578 37.21289,0.012 14.69808,-9.98571 23.19735,-10.06957 37.28613,-0.3662 15.60852,10.75001 21.27299,10.9232 35.99414,1.09276 16.47341,-11.00057 25.16549,-11.16317 39.50683,-0.73828 13.92695,10.12476 22.32587,10.12869 37.21289,0.015 5.2986,-3.5998 9.78773,-5.89433 14.02733,-6.92578 l 0,-20.52833 -299.99997,0 z m 79.96875,49.20412 c -5.55213,-0.0194 -11.1646,2.50638 -18.52149,7.57325 -15.07223,10.38063 -23.60368,10.35555 -38.80958,-0.11715 -9.17244,-6.31733 -15.582,-8.60315 -22.63768,-6.86133 l 0,45.43068 c 1.26405,-0.14295 2.59906,-0.22558 4.12792,-0.22558 7.27827,0 11.33239,1.51959 20.01564,7.5 14.3872,9.90882 21.36837,9.91449 35.88281,0.0234 15.18926,-10.35242 25.0032,-10.34823 39.21093,0.012 14.018,10.22163 22.60049,10.21239 35.97363,-0.0351 8.01457,-6.14137 11.44282,-7.5 18.917,-7.5 7.2782,0 11.33238,1.5196 20.01561,7.5 14.38722,9.90882 21.36837,9.91451 35.88282,0.0234 15.18925,-10.35242 25.00318,-10.35115 39.21093,0.009 14.01797,10.22163 22.6005,10.21238 35.97363,-0.0351 6.37526,-4.8852 9.8734,-6.72126 14.78905,-7.27734 l 0,-45.42482 c -4.09234,1.01025 -8.40008,3.36524 -13.59668,7.09863 -14.31228,10.28263 -23.96279,10.28575 -38.26755,0.009 -14.24605,-10.23472 -21.97476,-10.26265 -36.68849,-0.12885 -15.07223,10.38062 -23.60367,10.35556 -38.80957,-0.11715 -14.49254,-9.9814 -22.07825,-9.92994 -36.23437,0.24022 -14.31228,10.28262 -23.96278,10.28283 -38.26756,0.006 -7.12302,-5.11737 -12.61487,-7.68278 -18.167,-7.70214 z m 150.11132,74.77153 c -5.39339,0.0756 -11.07189,2.74399 -18.84961,8.02734 -15.61594,10.60957 -22.28946,10.60882 -38.23242,-0.003 -15.3284,-10.2027 -21.27855,-10.30098 -35.29687,-0.58008 -8.78267,6.09028 -12.49382,7.43476 -20.70117,7.50001 -8.546,0.0679 -11.42555,-1.01139 -19.79004,-7.4209 -13.26213,-10.16247 -20.42403,-10.05987 -35.97949,0.50682 -15.61594,10.60811 -22.28947,10.60591 -38.23243,-0.006 -10.05926,-6.69549 -16.08513,-9.01091 -22.99804,-7.08398 l 0,45.61233 c 7.52005,-1.82885 14.24978,0.35481 23.2588,6.55958 15.60852,10.75001 21.27297,10.9232 35.99413,1.09277 16.47339,-11.00056 25.16548,-11.16319 39.50683,-0.73829 13.92694,10.12479 22.32587,10.1258 37.21288,0.012 14.69808,-9.98567 23.19736,-10.06953 37.28614,-0.36621 15.60851,10.75004 21.27299,10.92321 35.99414,1.09279 16.47341,-11.00056 25.16549,-11.16315 39.50683,-0.73829 13.92695,10.12177 22.32587,10.12579 37.21289,0.012 5.2986,-3.59979 9.78773,-5.89434 14.02733,-6.92578 l 0,-45.61233 c -3.62104,1.00951 -7.48001,3.15941 -12.29882,6.50098 -8.78267,6.09029 -12.4938,7.43768 -20.70117,7.50293 -8.546,0.0679 -11.42262,-1.01136 -19.7871,-7.42089 -6.63106,-5.08125 -11.73943,-7.59911 -17.13281,-7.52345 z m -150.11132,75.22854 c -5.55213,-0.0194 -11.1646,2.50929 -18.52149,7.57618 -15.07223,10.38062 -23.60368,10.35262 -38.80958,-0.12016 -9.17244,-6.31731 -15.582,-8.60313 -22.63768,-6.86131 l 0,45.43069 c 1.26405,-0.14295 2.59906,-0.22266 4.12792,-0.22266 7.27827,0 11.33239,1.51958 20.01564,7.49997 14.3872,9.90899 21.36837,9.9116 35.88281,0.0205 15.18926,-10.35244 25.0032,-10.34822 39.21093,0.012 14.018,10.22147 22.60049,10.21238 35.97363,-0.0351 8.01457,-6.14139 11.44282,-7.5 18.917,-7.5 7.2782,0 11.33238,1.51959 20.01561,7.5 14.38722,9.90896 21.36837,9.91449 35.88282,0.0234 15.18925,-10.35242 25.00318,-10.35115 39.21093,0.009 14.01797,10.22146 22.6005,10.21529 35.97363,-0.0322 6.37518,-4.88515 9.87351,-6.72124 14.78905,-7.27735 l 0,-45.42774 c -4.09234,1.01026 -8.40008,3.36816 -13.59668,7.10155 -14.31228,10.28266 -23.96279,10.28285 -38.26755,0.006 -14.24605,-10.23473 -21.97476,-10.25971 -36.68849,-0.12599 -15.07223,10.38061 -23.60367,10.35262 -38.80957,-0.12016 -14.49254,-9.9814 -22.07825,-9.92996 -36.23437,0.24023 -14.31228,10.28264 -23.96278,10.28283 -38.26756,0.006 -7.12302,-5.1174 -12.61487,-7.6828 -18.167,-7.70216 z m 0.1113,74.77444 c -5.3934,0.0756 -11.07187,2.74399 -18.84961,8.02736 -15.61594,10.60807 -22.28947,10.60585 -38.23243,-0.006 -10.05926,-6.69552 -16.08513,-9.01094 -22.99804,-7.08399 l 0,25.084 300,0 0,-25.084 c -3.62107,1.00952 -7.48005,3.16235 -12.29885,6.50391 -8.78267,6.0903 -12.4938,7.43475 -20.70117,7.49999 -8.546,0.0679 -11.42261,-1.01136 -19.7871,-7.42088 -13.26215,-10.16248 -20.42697,-10.06283 -35.98242,0.5039 -15.61594,10.60955 -22.28945,10.60879 -38.23241,-0.003 -15.32841,-10.20274 -21.27855,-10.30102 -35.29688,-0.58008 -8.78266,6.09027 -12.49381,7.43475 -20.70117,7.5 -8.546,0.0679 -11.42555,-1.01139 -19.79004,-7.42089 -6.63106,-5.08125 -11.73648,-7.59618 -17.12988,-7.52053 z"
       style="fill:#000000;fill-opacity:0.1 " />
  </g>
</svg>
